<svg xmlns="http://www.w3.org/2000/svg" viewBox="0 0 563.22 706.8"><defs><style>.cls-1{fill:#009245;}</style></defs><g id="Capa_2" data-name="Capa 2"><g id="Capa_1-2" data-name="Capa 1"><path class="cls-1" d="M135.37,474q-9.75,92.09,8,144.3l-123,46Q-13.37,572.26,8.78,423.53A729,729,0,0,1,57.91,244.71Q77.83,196,103.5,158A276.32,276.32,0,0,1,165.91,92q36.72-27.89,79.23-35a85.91,85.91,0,0,1,11.95-.89c3.83,0,10.32.75,19.48,2.21a87.52,87.52,0,0,1,25.23,8q11.49,5.78,26.11,19.92A151.56,151.56,0,0,1,354,120.77q42.5,77,55.33,243.44a1660.47,1660.47,0,0,1-8.41,335.51l-.88,7.08L269,690v-.88q13.27-99.14,12.4-216.89Zm124-133.55a13.4,13.4,0,0,0,13.21-15l0-.14Q266.81,280.05,259,246.6C253.49,223.41,223,218,210.09,238l-.36.55q-22.57,34.62-40,84.58a13.55,13.55,0,0,0,12.92,18Z"/><path d="M563.22,91.53q-25.82.27-56.67.26.26,29,1.05,55.32a.57.57,0,0,1-.55.57l-35.36,1q-.79-26.34-.79-56.67-29,0-55.34.8L414.49,57.2q26.86-.8,56.41-1.06,0-28.74-.54-55.61L506.28,0q.27,25.55.27,56.14,29,0,56.14-.53Z"/></g></g></svg>