<svg xmlns="http://www.w3.org/2000/svg" viewBox="0 0 928 180.5"><defs><style>.cls-1{fill:#009245;}</style></defs><g id="Capa_2" data-name="Capa 2"><g id="Capa_1-2" data-name="Capa 1"><path class="cls-1" d="M37.55,115.91q-2.7,25.54,2.21,40L5.63,168.71q-9.34-25.53-3.19-66.79A201.85,201.85,0,0,1,16.07,52.31,132.76,132.76,0,0,1,28.71,28.24,76.38,76.38,0,0,1,46,10,49.38,49.38,0,0,1,68,.25,22.39,22.39,0,0,1,71.32,0a40.74,40.74,0,0,1,5.4.61,24.29,24.29,0,0,1,7,2.21A31,31,0,0,1,91,8.35a42,42,0,0,1,7.24,9.58Q110,39.29,113.56,85.46a460.9,460.9,0,0,1-2.33,93.08l-.25,2-36.34-4.66v-.25a430.35,430.35,0,0,0,3.43-60.17ZM72,78.86a3.71,3.71,0,0,0,3.66-4.16v0a218.77,218.77,0,0,0-3.78-21.83,7.48,7.48,0,0,0-13.56-2.39l-.1.15a108.26,108.26,0,0,0-11.1,23.46,3.75,3.75,0,0,0,3.58,5Z"/><path class="cls-1" d="M177.74,129.46l30.7,4.61q-3.91,24.94-23.55,32.79a35.42,35.42,0,0,1-18.24,2.19,40.35,40.35,0,0,1-18-7,56.15,56.15,0,0,1-14.77-15.58,58.93,58.93,0,0,1-8.66-23.21q-2.2-13.38.57-30,3-15.46,10.63-26.09t17.08-14.67a45,45,0,0,1,19.4-3.69,35.64,35.64,0,0,1,18.47,5.89,35.16,35.16,0,0,1,12.93,15A34.89,34.89,0,0,1,207.75,81L177,85.36a10.66,10.66,0,0,0-.11-1.27,5.21,5.21,0,0,0-1.27-2.2,5.57,5.57,0,0,0-3-1.84q-5.08-1.86-9.7,3.46-6.47,7.39-7.62,24.24-.69,12.47,4,21T171,138.23a4.71,4.71,0,0,0,3.93-1.15Q176.82,134.77,177.74,129.46Z"/><path class="cls-1" d="M298.29,167.92l1.27-119.19,9.3.32H324a108.6,108.6,0,0,1,14.45.94,95.75,95.75,0,0,1,13.27,2.7A46.86,46.86,0,0,1,373,65.49a40.69,40.69,0,0,1,7.29,11.16,60.67,60.67,0,0,1,4.46,15.16,113.35,113.35,0,0,1,1.41,25.13q-3.06,54.27-63.9,52.39c-4.23-.15-9.31.13-15.1-.49Zm52.15-37.35q3.06-4.23,3.88-12.57a72,72,0,0,0,0-15.27,63.06,63.06,0,0,0-2-10.69,13.71,13.71,0,0,0-3.05-5.64,15.74,15.74,0,0,0-5.88-3.29A66.09,66.09,0,0,0,330.71,81l-.47,56.62Q345.51,137.14,350.44,130.57Z"/><path class="cls-1" d="M455.4,23.21q-9.24,9.41-17.46,18.14l-11.78-11.1q8.13-8.66,17.8-18.31Z"/><path class="cls-1" d="M393,161.64l-.16-110L393,49.5l2.51,0,75.59-.73-.24,32.71q-22.77,0-45.55.24V96h34.41l.24,32.47-34.89.24v7.75q20.83.26,44.58.49l-.48,32.47c-21.33-.16-47.74-1.08-76.17-1.24Z"/><path class="cls-1" d="M565.4,49.46l3.14-.24,28.78-.49Q599,112.09,599,169.4l-32.65-.25V122.73q-6.52,14.51-12.33,27.8l-30.47.73.25-.24-1.21.48L511.23,130q.24,15.24.49,37.48l-32.41.24q0-4.59-1.45-73.51-.24-16.68-.24-37.24H509.3l.72,1.21,29.75,56.34q3.62-8.2,6.28-15,5.33-12.81,18.62-48.36Z"/><path class="cls-1" d="M639,48.73q.24,21.5.25,120.67H605.78Q605.53,61.72,605.52,49Z"/><path class="cls-1" d="M713,124.76a33,33,0,0,0,3.19,3.68q1.71,1.71,2.94,2.82a20.43,20.43,0,0,0,3.06,2.21l2.7,1.59q.85.49,2.7,1.47a15.52,15.52,0,0,1,2.08,1.23L713.7,166.7a9.51,9.51,0,0,0-1.71-1c-1-.49-1.76-.9-2.33-1.23l-2.82-1.59a31.72,31.72,0,0,1-3.44-2.21L700,158.11a45.38,45.38,0,0,1-3.8-3.18c-1.23-1.15-2.54-2.41-3.93-3.81a52.61,52.61,0,0,1-4-4.53q-2-2.46-3.93-5.4a81.18,81.18,0,0,1-4.66-7.36q-.24,7.36-1,35.57l-32.86-1q1.47-56.64,3.43-113.55l32.86,1.23-1,29.18,25.26-36.54,27,18.89-28.94,41.93A67.05,67.05,0,0,0,713,124.76Z"/><path class="cls-1" d="M240.07,126.22q-1.81,17.07,1.47,26.76l-22.82,8.54q-6.24-17.09-2.13-44.66A134.68,134.68,0,0,1,225.7,83.7a88.47,88.47,0,0,1,8.46-16.09,51.3,51.3,0,0,1,11.57-12.23,33,33,0,0,1,14.69-6.48,15.73,15.73,0,0,1,2.22-.17,26.91,26.91,0,0,1,3.61.41,16.33,16.33,0,0,1,4.68,1.48,20.54,20.54,0,0,1,4.84,3.69,28.39,28.39,0,0,1,4.85,6.41Q288.5,75,290.88,105.86a308.9,308.9,0,0,1-1.56,62.22l-.17,1.32-24.29-3.12v-.17a287.85,287.85,0,0,0,2.29-40.22Zm23-24.77a2.48,2.48,0,0,0,2.45-2.78v0A141.66,141.66,0,0,0,263,84.05a5,5,0,0,0-9.06-1.6l-.06.1a72.17,72.17,0,0,0-7.43,15.69,2.52,2.52,0,0,0,2.4,3.33Z"/><path class="cls-1" d="M764.94,126.22q-1.8,17.07,1.48,26.76l-22.82,8.54q-6.24-17.09-2.13-44.66a134.68,134.68,0,0,1,9.11-33.16A89.08,89.08,0,0,1,759,67.61a51.34,51.34,0,0,1,11.58-12.23A33,33,0,0,1,785.3,48.9a15.51,15.51,0,0,1,2.22-.17,26.91,26.91,0,0,1,3.61.41,16.53,16.53,0,0,1,4.68,1.48,20.74,20.74,0,0,1,4.84,3.69,28.07,28.07,0,0,1,4.84,6.41q7.89,14.28,10.26,45.14a307.45,307.45,0,0,1-1.56,62.22L814,169.4l-24.3-3.12v-.17a287.77,287.77,0,0,0,2.3-40.22Zm23-24.77a2.48,2.48,0,0,0,2.45-2.78v0a147.3,147.3,0,0,0-2.53-14.59,5,5,0,0,0-9.06-1.6l-.07.1a72.64,72.64,0,0,0-7.42,15.69,2.51,2.51,0,0,0,2.4,3.33Z"/><path d="M928,119.72q-15.35.15-33.7.16.15,17.22.62,32.9a.34.34,0,0,1-.33.34l-21,.62q-.48-15.66-.48-33.71-17.25,0-32.91.48l-.64-21.21q16-.47,33.55-.63,0-17.08-.32-33.07l21.37-.32q.15,15.19.16,33.39,17.24,0,33.38-.32Z"/></g></g></svg>